<svg width="27" height="25" viewBox="0 0 27 25" fill="none" xmlns="http://www.w3.org/2000/svg">
<path d="M1.56438 1.72918L2.48412 0.544244C2.03177 0.193124 1.41897 0.130187 0.904688 0.382027C0.390405 0.633868 0.0643768 1.15654 0.0643768 1.72918H1.56438ZM1.56438 22.859H0.0643768C0.0643768 23.4317 0.390405 23.9543 0.904688 24.2062C1.41897 24.458 2.03177 24.3951 2.48412 24.044L1.56438 22.859ZM15.1754 12.2941L16.0952 13.479C16.4612 13.1949 16.6754 12.7575 16.6754 12.2941C16.6754 11.8307 16.4612 11.3933 16.0952 11.1092L15.1754 12.2941ZM0.0643768 1.72918V22.859H3.06438V1.72918H0.0643768ZM2.48412 24.044L16.0952 13.479L14.2557 11.1092L0.644629 21.6741L2.48412 24.044ZM16.0952 11.1092L2.48412 0.544244L0.644629 2.91411L14.2557 13.479L16.0952 11.1092ZM23.3976 0.672684V23.9155H26.3976V0.672684H23.3976Z" fill="#151515"/>
</svg>
