<svg width="27" height="25" viewBox="0 0 27 25" fill="none" xmlns="http://www.w3.org/2000/svg">
<path d="M25.028 22.859L24.1082 24.044C24.5606 24.3951 25.1734 24.458 25.6876 24.2062C26.2019 23.9543 26.528 23.4317 26.528 22.859H25.028ZM25.028 1.72917H26.528C26.528 1.15653 26.2019 0.633862 25.6876 0.382021C25.1734 0.130178 24.5606 0.193115 24.1082 0.544233L25.028 1.72917ZM11.4168 12.2941L10.4971 11.1092C10.131 11.3933 9.91683 11.8307 9.91683 12.2941C9.91683 12.7575 10.131 13.1949 10.4971 13.479L11.4168 12.2941ZM26.528 22.859V1.72917H23.528V22.859H26.528ZM24.1082 0.544233L10.4971 11.1092L12.3366 13.479L25.9477 2.9141L24.1082 0.544233ZM10.4971 13.479L24.1082 24.044L25.9477 21.6741L12.3366 11.1092L10.4971 13.479ZM3.19461 23.9155V0.672676H0.194607V23.9155H3.19461Z" fill="#151515"/>
</svg>
